<svg width="18" height="18" viewBox="0 0 18 18" fill="none" xmlns="http://www.w3.org/2000/svg">
<path d="M16.0197 10.2144C15.4509 9.3534 15.1665 8.38307 15.1665 7.30352C15.1665 6.32036 15.4342 5.4199 15.9702 4.60164C16.2587 4.15807 16.7286 3.64462 17.3798 3.0613C16.9512 2.50461 16.5225 2.06973 16.0939 1.75595C15.319 1.19099 14.4411 0.907471 13.4604 0.907471C12.8751 0.907471 12.1621 1.05591 11.3213 1.35156C10.5134 1.64768 9.92404 1.79513 9.5533 1.79513C9.27306 1.79513 8.70428 1.66458 7.84696 1.40354C6.98144 1.14245 6.25215 1.01191 5.6586 1.01191C4.24077 1.01191 3.07024 1.63848 2.14722 2.89185C1.21574 4.16241 0.75 5.78949 0.75 7.7734C0.75 9.87916 1.35586 12.0676 2.56765 14.3391C3.79568 16.5928 5.03624 17.7195 6.28923 17.7195C6.70962 17.7195 7.25344 17.5716 7.92115 17.276C8.58885 16.9888 9.17387 16.8452 9.67673 16.8452C10.2125 16.8452 10.8347 16.9845 11.5438 17.2627C12.2937 17.5412 12.8708 17.6802 13.2747 17.6802C14.3296 17.6802 15.3888 16.8275 16.4522 15.1221C17.1446 14.0346 17.6516 12.9465 17.9731 11.859C17.2395 11.6243 16.5885 11.076 16.0197 10.2144Z" fill="white"/>
</svg>
