<svg width="5" height="6" viewBox="0 0 5 6" fill="none" xmlns="http://www.w3.org/2000/svg">
<path d="M2.81641 4.12447C3.33576 3.57646 3.71904 2.97624 3.96635 2.32356C4.20539 1.67088 4.32494 1.07935 4.32494 0.548284C4.32494 0.513722 4.32284 0.469721 4.31872 0.41774C4.31438 0.365759 4.31255 0.322508 4.31255 0.287196C4.30432 0.261088 4.29403 0.213215 4.28165 0.143341C4.2693 0.0739814 4.25901 0.0261088 4.25074 0C2.79994 0.356793 1.76973 1.00078 1.15979 1.93193C0.541549 2.87157 0.220044 3.98982 0.195312 5.28645C0.747368 5.23399 1.17599 5.16053 1.48126 5.06478C1.92638 4.90769 2.37128 4.59463 2.81641 4.12447Z" fill="white"/>
</svg>
